<svg xmlns="http://www.w3.org/2000/svg" width="120.493" height="120.345" viewBox="0 0 120.493 120.345">
  <g id="Group_18" data-name="Group 18" transform="translate(-126.853 -230.585)">
    <g id="Group_17" data-name="Group 17">
      <path id="Path_9" data-name="Path 9" d="M128.522,143.719h-7.9a3.989,3.989,0,0,0,0-7.978h-7.9a3.989,3.989,0,0,0,0-7.978H100.868a3.989,3.989,0,0,0,0-7.978H122.6a3.989,3.989,0,0,0,0-7.977H112.72a3.989,3.989,0,0,0,0-7.978h-3.95a3.989,3.989,0,0,0,0-7.978h19.752a3.989,3.989,0,0,0,0-7.978h-7.9a3.989,3.989,0,0,0,0-7.978h-7.9a3.989,3.989,0,0,0,0-7.978h-5.926a3.989,3.989,0,0,0,0-7.978H47.534a3.989,3.989,0,0,0,0,7.978H33.707a3.989,3.989,0,0,0,0,7.978H29.756a3.989,3.989,0,0,0,0,7.978H41.608a3.989,3.989,0,0,0,0,7.978H19.88a3.989,3.989,0,0,0,0,7.978h9.876a3.989,3.989,0,0,0,0,7.978H19.88a3.989,3.989,0,0,0,0,7.977H15.929a3.989,3.989,0,0,0,0,7.978h9.876a3.989,3.989,0,0,0,0,7.978h-3.95a3.989,3.989,0,0,0,0,7.978H41.608a3.989,3.989,0,0,0,0,7.978h-7.9a3.989,3.989,0,0,0,0,7.978h67.161a3.989,3.989,0,0,0,0-7.978h27.653a3.989,3.989,0,0,0,0-7.978Z" transform="translate(114.874 191.256)" fill="#e7d6ff"/>
      <text id="_" data-name="?" transform="translate(219.929 282.075) rotate(-19)" fill="#8854d0" font-size="20" font-family="Poppins-SemiBold, Poppins" font-weight="600"><tspan x="0" y="0">?</tspan></text>
      <text id="_2" data-name="?" transform="translate(211.903 266.051) rotate(-19)" fill="#8854d0" font-size="30" font-family="Poppins-SemiBold, Poppins" font-weight="600"><tspan x="0" y="0">?</tspan></text>
      <text id="_3" data-name="?" transform="matrix(0.94, -0.342, 0.342, 0.94, 207.114, 275.034)" fill="#8854d0" font-size="15" font-family="Poppins-SemiBold, Poppins" font-weight="600"><tspan x="0" y="0">?</tspan></text>
      <g id="attendant-list" transform="translate(145.573 266.103)">
        <path id="Path_38" data-name="Path 38" d="M71.71,15.718a2.76,2.76,0,0,0-2.757-2.757H58.512a3.468,3.468,0,0,0-2.139-.739h-3.4v-.383a5.941,5.941,0,0,0-11.883,0v.383H37.7a3.468,3.468,0,0,0-2.139.739H25.118a2.76,2.76,0,0,0-2.757,2.757V71.16a2.76,2.76,0,0,0,2.757,2.757H68.954a2.76,2.76,0,0,0,2.757-2.757V15.718Z" transform="translate(-1.708 -1.737)" fill="#e6e7e8"/>
        <path id="Path_39" data-name="Path 39" d="M65.454,15.381H54.8a2.9,2.9,0,0,1,1,2.185v3.49H31.275v-3.49a2.9,2.9,0,0,1,1-2.185H21.618a2.191,2.191,0,0,0-2.191,2.191V73.013A2.191,2.191,0,0,0,21.618,75.2H65.454a2.191,2.191,0,0,0,2.191-2.191V17.572A2.191,2.191,0,0,0,65.454,15.381Z" transform="translate(-0.434 -5.854)" fill="#fff"/>
        <path id="Path_40" data-name="Path 40" d="M65.454,18.381H55.747a2.937,2.937,0,0,1,.049.487v3.49H31.275v-3.49a2.884,2.884,0,0,1,.049-.487H21.618a2.191,2.191,0,0,0-2.191,2.191V74.316a2.191,2.191,0,0,0,2.191,2.191H65.454a2.191,2.191,0,0,0,2.191-2.191V20.572a2.191,2.191,0,0,0-2.191-2.191Z" transform="translate(-0.434 -7.156)" fill="#8854d0"/>
        <path id="Path_41" data-name="Path 41" d="M65.652,23.659H59.208v.99H34.687v-.99H28.242a.957.957,0,0,0-.957.957v48.54a.957.957,0,0,0,.957.957h37.41a.957.957,0,0,0,.957-.957V24.616A.957.957,0,0,0,65.652,23.659Z" transform="translate(-3.846 -9.448)" fill="#fff"/>
        <path id="Path_47" data-name="Path 47" d="M61.963,9.223H58V8.274a5.376,5.376,0,1,0-10.751,0v.949H43.29a2.924,2.924,0,0,0-2.924,2.924v3.49H64.887v-3.49A2.924,2.924,0,0,0,61.963,9.223Z" transform="translate(-9.525 -0.435)" fill="#8854d0"/>
        <circle id="Ellipse_3" data-name="Ellipse 3" cx="1.698" cy="1.698" r="1.698" transform="translate(41.404 5.817)" fill="#fff"/>
        <g id="Group_6" data-name="Group 6" transform="translate(18.427 1.897)">
          <path id="Path_48" data-name="Path 48" d="M65.02,8.961H54.578a3.467,3.467,0,0,0-2.14-.74h-3.4V7.838a5.941,5.941,0,1,0-11.883,0v.383h-3.4a3.467,3.467,0,0,0-2.14.74H21.184a2.76,2.76,0,0,0-2.757,2.756V67.159a2.76,2.76,0,0,0,2.757,2.757H65.02a2.76,2.76,0,0,0,2.757-2.757V24.667a.566.566,0,0,0-1.132,0V67.159a1.627,1.627,0,0,1-1.625,1.625H21.184a1.627,1.627,0,0,1-1.625-1.625V11.717a1.627,1.627,0,0,1,1.625-1.625h9.493a3.468,3.468,0,0,0-.4,1.618v1.934H24.4a1.525,1.525,0,0,0-1.523,1.523v48.54A1.525,1.525,0,0,0,24.4,65.23h37.41a1.524,1.524,0,0,0,1.523-1.523V15.169a1.524,1.524,0,0,0-1.523-1.523H55.927V11.712a3.468,3.468,0,0,0-.4-1.618H65.02a1.627,1.627,0,0,1,1.625,1.625v3.2a.566.566,0,1,0,1.132,0v-3.2A2.76,2.76,0,0,0,65.02,8.961Zm-27.294.392a.566.566,0,0,0,.566-.566V7.838a4.81,4.81,0,0,1,9.62,0v.949a.565.565,0,0,0,.566.566h3.961A2.36,2.36,0,0,1,54.8,11.711v2.924H31.407V11.711a2.36,2.36,0,0,1,2.358-2.358Zm24.08,5.424a.392.392,0,0,1,.391.391v48.54a.392.392,0,0,1-.391.391H24.4a.392.392,0,0,1-.392-.391V15.169a.392.392,0,0,1,.392-.391h5.879V15.2a.566.566,0,0,0,.566.566h24.52a.565.565,0,0,0,.566-.566v-.424h5.879Z" transform="translate(-18.427 -1.897)"/>
          <path id="Path_49" data-name="Path 49" d="M104.206,28.252a.565.565,0,0,0-.566.566v4.731a.566.566,0,1,0,1.132,0V28.818A.565.565,0,0,0,104.206,28.252Z" transform="translate(-55.422 -13.339)"/>
          <path id="Path_51" data-name="Path 51" d="M60.3,12.351a2.263,2.263,0,1,0-2.263-2.263A2.266,2.266,0,0,0,60.3,12.351Zm0-3.4a1.132,1.132,0,1,1-1.132,1.132A1.133,1.133,0,0,1,60.3,8.956Z" transform="translate(-35.622 -4.47)"/>
          <path id="Path_52" data-name="Path 52" d="M41.1,72.3H38.1a.774.774,0,0,0-.774.774v2.992a.774.774,0,0,0,.774.774H41.1a.774.774,0,0,0,.774-.774V73.07A.774.774,0,0,0,41.1,72.3Z" transform="translate(-26.634 -32.46)" fill="none" stroke="#000" stroke-width="1"/>
          <path id="Path_53" data-name="Path 53" d="M41.1,83.841H38.1a.773.773,0,0,0-.774.774v2.992a.774.774,0,0,0,.774.774H41.1a.774.774,0,0,0,.774-.774V84.615A.773.773,0,0,0,41.1,83.841Z" transform="translate(-26.634 -37.473)" fill="none" stroke="#000" stroke-width="1"/>
          <path id="Path_54" data-name="Path 54" d="M41.1,95.386H38.1a.773.773,0,0,0-.774.774v2.992a.774.774,0,0,0,.774.774H41.1a.773.773,0,0,0,.774-.774V96.16A.773.773,0,0,0,41.1,95.386Z" transform="translate(-26.634 -42.485)" fill="none" stroke="#000" stroke-width="1"/>
          <path id="Path_55" data-name="Path 55" d="M51.087,78.884a.566.566,0,0,0,.566.566H71.259a.566.566,0,0,0,0-1.132H51.653A.566.566,0,0,0,51.087,78.884Z" transform="translate(-32.606 -35.075)"/>
          <path id="Path_56" data-name="Path 56" d="M71.259,89.863H51.653a.566.566,0,1,0,0,1.132H71.259a.566.566,0,0,0,0-1.132Z" transform="translate(-32.606 -40.087)"/>
          <path id="Path_57" data-name="Path 57" d="M71.259,101.407H51.653a.566.566,0,1,0,0,1.132H71.259a.566.566,0,0,0,0-1.132Z" transform="translate(-32.606 -45.099)"/>
          <g id="Rectangle_35" data-name="Rectangle 35" transform="translate(10 17)" fill="#fff" stroke="#000" stroke-width="0.5" stroke-dasharray="1">
            <rect width="29" height="19" stroke="none"/>
            <rect x="0.25" y="0.25" width="28.5" height="18.5" fill="none"/>
          </g>
        </g>
        <path id="Path_123" data-name="Path 123" d="M51.087,78.877c0,.309.137.559.305.559H61.971c.169,0,.305-.25.305-.559s-.136-.559-.305-.559H51.392C51.224,78.318,51.087,78.568,51.087,78.877Z" transform="translate(-13.06 -51.082)"/>
        <path id="Path_124" data-name="Path 124" d="M0,.559c0,.309.137.559.305.559H10.884c.169,0,.305-.25.305-.559S11.053,0,10.884,0H.305C.137,0,0,.25,0,.559Z" transform="translate(44.181 22.201) rotate(90)"/>
      </g>
    </g>
  </g>
</svg>
