<svg xmlns="http://www.w3.org/2000/svg" width="120.493" height="120.345" viewBox="0 0 120.493 120.345">
  <g id="Group_16" data-name="Group 16" transform="translate(-126.853 -230.585)">
    <path id="Path_9" data-name="Path 9" d="M128.522,143.719h-7.9a3.989,3.989,0,0,0,0-7.978h-7.9a3.989,3.989,0,0,0,0-7.978H100.868a3.989,3.989,0,0,0,0-7.978H122.6a3.989,3.989,0,0,0,0-7.977H112.72a3.989,3.989,0,0,0,0-7.978h-3.95a3.989,3.989,0,0,0,0-7.978h19.752a3.989,3.989,0,0,0,0-7.978h-7.9a3.989,3.989,0,0,0,0-7.978h-7.9a3.989,3.989,0,0,0,0-7.978h-5.926a3.989,3.989,0,0,0,0-7.978H47.534a3.989,3.989,0,0,0,0,7.978H33.707a3.989,3.989,0,0,0,0,7.978H29.756a3.989,3.989,0,0,0,0,7.978H41.608a3.989,3.989,0,0,0,0,7.978H19.88a3.989,3.989,0,0,0,0,7.978h9.876a3.989,3.989,0,0,0,0,7.978H19.88a3.989,3.989,0,0,0,0,7.977H15.929a3.989,3.989,0,0,0,0,7.978h9.876a3.989,3.989,0,0,0,0,7.978h-3.95a3.989,3.989,0,0,0,0,7.978H41.608a3.989,3.989,0,0,0,0,7.978h-7.9a3.989,3.989,0,0,0,0,7.978h67.161a3.989,3.989,0,0,0,0-7.978h27.653a3.989,3.989,0,0,0,0-7.978Z" transform="translate(114.874 191.256)" fill="#e7d6ff"/>
    <text id="_" data-name="?" transform="translate(219.929 282.075) rotate(-19)" fill="#8854d0" font-size="20" font-family="Poppins-SemiBold, Poppins" font-weight="600"><tspan x="0" y="0">?</tspan></text>
    <text id="_2" data-name="?" transform="translate(211.903 266.051) rotate(-19)" fill="#8854d0" font-size="30" font-family="Poppins-SemiBold, Poppins" font-weight="600"><tspan x="0" y="0">?</tspan></text>
    <text id="_3" data-name="?" transform="translate(205.748 280.34) rotate(-19)" fill="#8854d0" font-size="20" font-family="Poppins-SemiBold, Poppins" font-weight="600"><tspan x="0" y="0">?</tspan></text>
    <g id="folder_2_" data-name="folder (2)" transform="translate(155.996 278.139)">
      <path id="Path_1" data-name="Path 1" d="M10.724,69.672h1.667a2.464,2.464,0,0,0,2.052-1.087l2.345-3.517a2.718,2.718,0,0,1,2.264-1.2H30.389a2.719,2.719,0,0,1,2.264,1.2L35,68.585a2.464,2.464,0,0,0,2.052,1.087H67.479a2.544,2.544,0,0,1,2.571,2.516v31.476a2.544,2.544,0,0,1-2.571,2.516H10.724a2.544,2.544,0,0,1-2.571-2.516V72.188A2.544,2.544,0,0,1,10.724,69.672Z" transform="translate(-7.117 -62.833)" fill="#8854d0"/>
      <path id="Path_2" data-name="Path 2" d="M92.807,149.332H42.965a1.857,1.857,0,0,0-1.838,1.875v21.951a1.857,1.857,0,0,0,1.838,1.875H92.807a1.857,1.857,0,0,0,1.838-1.875V151.207A1.857,1.857,0,0,0,92.807,149.332Z" transform="translate(-35.901 -138.235)" fill="#fff"/>
      <rect id="Rectangle_1" data-name="Rectangle 1" width="61.897" height="13.628" transform="translate(1.036 14.092)" fill="#e7d6ff" opacity="0.2"/>
      <path id="Path_3" data-name="Path 3" d="M10.724,154.584H28.2a3.7,3.7,0,0,0,2.4-.885l4.088-3.481a3.7,3.7,0,0,1,2.4-.885h30.4a2.594,2.594,0,0,1,2.571,2.616v32.733a2.594,2.594,0,0,1-2.571,2.616H10.724a2.594,2.594,0,0,1-2.571-2.616V157.2A2.594,2.594,0,0,1,10.724,154.584Z" transform="translate(-7.117 -139.128)" fill="#8854d0"/>
      <rect id="Rectangle_2" data-name="Rectangle 2" width="24.878" height="2.072" rx="1.036" transform="translate(19.404 37.141)" fill="#fff"/>
      <path id="Path_4" data-name="Path 4" d="M60.378,61.551H29.931a1.435,1.435,0,0,1-1.2-.639l-2.347-3.536a3.727,3.727,0,0,0-3.118-1.66H11.924a3.727,3.727,0,0,0-3.118,1.66L6.459,60.912a1.435,1.435,0,0,1-1.2.639H3.591A3.565,3.565,0,0,0,0,65.082v36.31a3.565,3.565,0,0,0,3.591,3.531H60.378a3.565,3.565,0,0,0,3.591-3.531V65.082A3.566,3.566,0,0,0,60.378,61.551Zm1.554,39.841a1.543,1.543,0,0,1-1.554,1.528H3.591a1.543,1.543,0,0,1-1.554-1.528V74.822a1.543,1.543,0,0,1,1.554-1.528H21.075a4.811,4.811,0,0,0,3.051-1.089l4.091-3.365a2.75,2.75,0,0,1,1.743-.623H60.377a1.543,1.543,0,0,1,1.554,1.528v31.647Zm0-34.829a3.621,3.621,0,0,0-1.554-.348H29.96A4.811,4.811,0,0,0,26.909,67.3l-4.091,3.365a2.75,2.75,0,0,1-1.743.623H3.591a3.618,3.618,0,0,0-1.554.348V65.081a1.543,1.543,0,0,1,1.554-1.528H5.259a3.474,3.474,0,0,0,2.906-1.547l2.347-3.536a1.687,1.687,0,0,1,1.412-.752H23.267a1.688,1.688,0,0,1,1.412.752l2.346,3.536a3.474,3.474,0,0,0,2.906,1.547H60.378a1.543,1.543,0,0,1,1.554,1.528v1.481h0Z" transform="translate(0 -55.716)"/>
      <rect id="Rectangle_4" data-name="Rectangle 4" width="24.878" height="2.072" rx="1.036" transform="translate(19.404 37.141)" fill="#fff"/>
    </g>
    <line id="Line_9" data-name="Line 9" y1="7.534" x2="5.85" transform="translate(176.762 301.063)" fill="none" stroke="#fff" stroke-linecap="round" stroke-width="2"/>
    <line id="Line_10" data-name="Line 10" x1="5.85" y1="7.534" transform="translate(176.762 301.063)" fill="none" stroke="#fff" stroke-linecap="round" stroke-width="2"/>
    <line id="Line_11" data-name="Line 11" y1="3.767" x2="2.925" transform="translate(194.762 303.063)" fill="none" stroke="#fff" stroke-linecap="round" stroke-width="2"/>
    <line id="Line_12" data-name="Line 12" x1="2.925" y1="3.767" transform="translate(194.762 303.063)" fill="none" stroke="#fff" stroke-linecap="round" stroke-width="2"/>
  </g>
</svg>
