<svg xmlns="http://www.w3.org/2000/svg" width="208" height="150" viewBox="0 0 208 150"><g><g><g><path fill="#c5ccec" d="M45.262 15.633c0-4 4-8 8-8h111.02c4 0 8 4 8 8v126.089c0 4-4 8-8 8H53.262c-4 0-8-4-8-8z"/></g><g><path fill="#dc587d" d="M77.368 128.682a3.457 3.457 0 0 0-4.893.051l-.882.9-.906-.893a3.46 3.46 0 1 0-4.856 4.931l3.366 3.315.019.023a3.455 3.455 0 0 0 4.893-.052l3.311-3.381a3.46 3.46 0 0 0-.052-4.894z"/></g><g><g><text dominant-baseline="text-before-edge" style="line-height:8px;font-kerning:normal" fill="#fff" font-family="'Bebas','Bebas'" font-size="7" letter-spacing=".7" transform="translate(81 126)"><tspan font-family="'Segoe UI','SegoeUI'" font-style="none" font-weight="400">1k</tspan></text></g></g><g><g><text dominant-baseline="text-before-edge" style="line-height:8px;font-kerning:normal" fill="#fff" font-family="'Bebas','Bebas'" font-size="7" letter-spacing=".7" transform="translate(117 126)"><tspan font-family="'Segoe UI','SegoeUI'" font-style="none" font-weight="400">50</tspan></text></g></g><g><path fill="#8994c8" d="M99.866 129.68c0-.76.759-1.518 1.518-1.518h10.402c.759 0 1.518.759 1.518 1.518v5.468c0 .759-.76 1.517-1.518 1.517h-10.403c-.758 0-1.517-.758-1.517-1.517z"/></g><g><path fill="none" stroke="#f9f8ff" stroke-linecap="round" stroke-linejoin="round" stroke-miterlimit="50" stroke-width="1.15" d="M103.212 131.079h6.08"/></g><g><path fill="none" stroke="#f9f8ff" stroke-linecap="round" stroke-linejoin="round" stroke-miterlimit="50" stroke-width="1.15" d="M103.212 133.36h2.64"/></g><g><path fill="#8994c8" d="M110.264 135.74v2.973a.104.104 0 0 1-.17.081l-3.843-3.055z"/></g><g><path fill="#fff" d="M54 118.857V17h108.127v101.857z"/></g><g><g/></g><g><path fill="#dc587d" d="M192.275 47.827a7.725 7.725 0 1 1 15.449 0 7.725 7.725 0 0 1-15.45 0z"/></g><g><path fill="#fff" d="M202.625 45.84a1.601 1.601 0 0 0-2.265.023l-.408.417-.42-.414a1.602 1.602 0 1 0-2.249 2.284l1.559 1.535.009.01a1.598 1.598 0 0 0 2.266-.024l1.533-1.565a1.603 1.603 0 0 0-.025-2.266z"/></g><g><path fill="#dc587d" d="M36.757 26.667c-5.737-1.342-9.3-7.08-7.959-12.818 1.342-5.737 7.08-9.3 12.818-7.958 5.737 1.341 9.3 7.08 7.959 12.817-1.342 5.738-7.08 9.3-12.818 7.96z"/></g><g><path fill="#fff" d="M42.814 13.534a2.21 2.21 0 0 0-3.13.033l-.563.576-.58-.572a2.213 2.213 0 1 0-3.105 3.154l2.152 2.12.012.014a2.212 2.212 0 0 0 3.13-.033l2.117-2.162a2.213 2.213 0 0 0-.033-3.13z"/></g><g><path fill="#3963da" d="M173.29 4.723c0-2.21 2.21-4.419 4.419-4.419h12.425c2.21 0 4.42 2.21 4.42 4.42v5.878c0 2.21-2.21 4.42-4.42 4.42H177.71c-2.21 0-4.42-2.21-4.42-4.42z"/></g><g><path fill="#3963da" d="M180.058 13.434l2.986 4.273a1.061 1.061 0 0 0 1.745-.007l2.93-4.266z"/></g><g><path fill="#fbfbfb" d="M184.947 10.924c-1.59.028-3.2.05-4.661-.052-.463-.032-.863-.767-.3-1-.237-.121-.477-.238-.58-.503-.098-.251.02-.592.281-.657-.552.137-.77-.738-.339-1.02-.228-.195-.417-.451-.465-.746-.048-.295.073-.629.336-.772.172-.093.377-.097.572-.098l1.984-.015c-.179-1.035-.232-2.163.293-3.071.158-.274.584-.602.922-.392.316.198.228.689.213.998-.066 1.287.666 2.582 1.803 3.188 0 0-.075 2.742-.059 4.14z"/></g><g><path fill="#fbfbfb" d="M187.927 6.784v4.137h-2.403V6.784z"/></g><g><path fill="#3963da" d="M-.103 85.926c0-2.833 2.832-5.665 5.665-5.665h15.93c2.833 0 5.665 2.832 5.665 5.665v7.538c0 2.832-2.832 5.665-5.665 5.665H5.562c-2.833 0-5.665-2.833-5.665-5.665z"/></g><g><path fill="#3963da" d="M8.574 97.094l3.828 5.478c.544.78 1.7.775 2.237-.009l3.757-5.47z"/></g><g><path fill="#fbfbfb" d="M14.842 93.877c-2.038.035-4.102.062-5.976-.068-.594-.04-1.107-.983-.386-1.28-.303-.157-.61-.307-.743-.647-.125-.322.025-.759.36-.841-.706.174-.985-.947-.433-1.31-.292-.248-.535-.577-.597-.955-.061-.379.094-.806.43-.99.221-.12.484-.124.735-.126l2.543-.019c-.23-1.326-.298-2.772.376-3.937.203-.351.748-.772 1.182-.502.405.253.293.883.272 1.28-.084 1.65.854 3.31 2.312 4.087 0 0-.096 3.514-.075 5.308z"/></g><g><path fill="#fbfbfb" d="M18.662 88.569v5.303h-3.08v-5.303z"/></g><g><path fill="#a5b1c2" d="M116.077 64.587c2.646 1.543 2.646 5.366 0 6.91l-12.062 7.036C101.35 80.088 98 78.165 98 75.078V61.006c0-3.087 3.349-5.01 6.015-3.455z"/></g></g></g></svg>