<svg xmlns="http://www.w3.org/2000/svg" width="147" height="23" viewBox="0 0 147 23">
  <g id="Group_1230" data-name="Group 1230" transform="translate(-622 -419)">
    <text id="_Good_Job_" data-name=" Good Job!" transform="translate(644 436)" fill="#20bf6b" font-size="16" font-family="Poppins-Regular, Poppins"><tspan x="0" y="0" xml:space="preserve"> Good Job!</tspan></text>
    <g id="tongue" transform="translate(602.989 421)">
      <circle id="Ellipse_78" data-name="Ellipse 78" cx="8.118" cy="8.118" r="8.118" transform="translate(19.341 0.33)" fill="#fddf6d"/>
      <path id="Path_940" data-name="Path 940" d="M38.133,48.259A8.118,8.118,0,0,1,32.7,34.107a8.119,8.119,0,1,0,9.121,13.267A8.084,8.084,0,0,1,38.133,48.259Z" transform="translate(-8.934 -32.891)" fill="#fcc56b"/>
      <g id="Group_1228" data-name="Group 1228" transform="translate(22.879 8.004)">
        <path id="Path_941" data-name="Path 941" d="M128.608,224.523a1.092,1.092,0,0,0-1.092,1.092H129.7A1.092,1.092,0,0,0,128.608,224.523Z" transform="translate(-127.516 -224.523)" fill="#f9a880"/>
        <path id="Path_942" data-name="Path 942" d="M395.708,224.523a1.092,1.092,0,0,0-1.092,1.092H396.8A1.092,1.092,0,0,0,395.708,224.523Z" transform="translate(-385.094 -224.523)" fill="#f9a880"/>
      </g>
      <path id="Path_943" data-name="Path 943" d="M211.343,306.482h0a3.286,3.286,0,0,1-3.286-3.286h6.572A3.286,3.286,0,0,1,211.343,306.482Z" transform="translate(-182.307 -292.387)" fill="#7f184c"/>
      <path id="Path_944" data-name="Path 944" d="M230.548,303.195v.513a.392.392,0,0,0,.392.392h4.185a.392.392,0,0,0,.392-.392v-.513Z" transform="translate(-203.996 -292.386)" fill="#f2f2f2"/>
      <path id="Path_945" data-name="Path 945" d="M230.762,349.285h-2.309v0a3,3,0,0,0-1.271.351,3.3,3.3,0,0,0,.863.786.869.869,0,0,1,.407.736v1.749a1.844,1.844,0,0,0,1.844,1.844h0a1.844,1.844,0,0,0,1.844-1.844v-2.247A1.379,1.379,0,0,0,230.762,349.285Z" transform="translate(-200.75 -336.833)" fill="#fc4c59"/>
      <path id="Path_946" data-name="Path 946" d="M296.38,366.764a.33.33,0,0,1-.33-.33V363.3c0-.037-.086-.127-.164-.172a.33.33,0,0,1,.322-.577.952.952,0,0,1,.5.749v3.138A.33.33,0,0,1,296.38,366.764Z" transform="translate(-266.84 -349.582)" fill="#bc3b4a"/>
      <g id="Group_1229" data-name="Group 1229" transform="translate(24.534 4.961)">
        <path id="Path_947" data-name="Path 947" d="M174.265,141.621a.33.33,0,0,1-.132-.633l1.355-.591-1.356-.6a.33.33,0,1,1,.267-.6l2.045.9a.33.33,0,0,1,0,.6l-2.045.892A.329.329,0,0,1,174.265,141.621Z" transform="translate(-173.934 -139.166)" fill="#7f184c"/>
        <path id="Path_948" data-name="Path 948" d="M356.846,141.622a.329.329,0,0,1-.132-.028l-2.045-.892a.33.33,0,0,1,0-.6l2.045-.9a.33.33,0,0,1,.267.6l-1.356.6,1.355.591a.33.33,0,0,1-.132.633Z" transform="translate(-348.035 -139.167)" fill="#7f184c"/>
      </g>
      <path id="Path_949" data-name="Path 949" d="M27.459,0a8.448,8.448,0,1,0,0,16.9h.073a2.174,2.174,0,0,0,4.188-.818V13.831a1.7,1.7,0,0,0-.079-.515,3.627,3.627,0,0,0,1.011-2.507.33.33,0,0,0-.33-.33H25.75a.33.33,0,0,0-.33.33,3.61,3.61,0,0,0,1.628,3.021l.023.013a.727.727,0,0,1,.3.594v1.642c0,.053,0,.105.006.157a7.787,7.787,0,1,1,5.978-2.7.33.33,0,0,0,.5.432A8.449,8.449,0,0,0,27.459,0Zm3.6,16.078a1.514,1.514,0,0,1-2.97.413.329.329,0,0,0-.011-.04,1.51,1.51,0,0,1-.046-.372V14.436a1.385,1.385,0,0,0-.62-1.16,2.975,2.975,0,0,1-.433-.349,2.68,2.68,0,0,1,.739-.142l.034,0h2.259a1.05,1.05,0,0,1,1.049,1.049v2.247Zm.913-4.939a2.968,2.968,0,0,1-.674,1.57,1.705,1.705,0,0,0-1.288-.587H27.7a.326.326,0,0,0-.068.007,3.351,3.351,0,0,0-1.1.262,2.946,2.946,0,0,1-.441-1.252h5.875Z" transform="translate(0)"/>
      <path id="Path_950" data-name="Path 950" d="M173.96,141.425a.33.33,0,0,0,.435.171l2.045-.892a.33.33,0,0,0,0-.6l-2.045-.9a.33.33,0,1,0-.267.6l1.356.6-1.355.591A.33.33,0,0,0,173.96,141.425Z" transform="translate(-149.398 -134.207)"/>
      <path id="Path_951" data-name="Path 951" d="M357.147,141.424a.33.33,0,0,0-.171-.435l-1.355-.591,1.356-.6a.33.33,0,1,0-.267-.6l-2.045.9a.33.33,0,0,0,0,.6l2.045.892a.33.33,0,0,0,.435-.171Z" transform="translate(-323.499 -134.206)"/>
      <circle id="Ellipse_79" data-name="Ellipse 79" cx="0.33" cy="0.33" r="0.33" transform="translate(32.424 14.286)"/>
    </g>
  </g>
</svg>
