<svg xmlns="http://www.w3.org/2000/svg" width="87.947" height="31.503" viewBox="0 0 87.947 31.503">
  <g id="Group_1347" data-name="Group 1347" transform="translate(-2171 102)">
    <g id="Mejik-heksagonal" transform="translate(2131.73 -122.421)">
      <path id="Path_15" data-name="Path 15" d="M67.008,29.021v14.06a1.688,1.688,0,0,1-.845,1.463L53.983,51.577a1.693,1.693,0,0,1-1.689,0l-12.181-7.03a1.688,1.688,0,0,1-.844-1.466V29.021a1.688,1.688,0,0,1,.844-1.463l12.181-7.033a1.693,1.693,0,0,1,1.689,0l12.179,7.033A1.688,1.688,0,0,1,67.008,29.021Z" transform="translate(0 0.121)" fill="#fff"/>
      <g id="Group_1333" data-name="Group 1333" transform="translate(75.275 29.421)">
        <path id="Path_16" data-name="Path 16" d="M87.9,159.214a1.34,1.34,0,0,1-1.323-1.142l-.991-6.7-2.441,4.378a1.337,1.337,0,0,1-1.162.686h0a1.34,1.34,0,0,1-1.162-.686L78.268,151.3l-.96,6.764a1.34,1.34,0,0,1-2.653-.374l1.484-10.6a1.34,1.34,0,0,1,2.489-.48l3.339,5.773,3.2-5.739a1.337,1.337,0,0,1,2.5.456L89.228,157.7a1.337,1.337,0,0,1-1.128,1.522A1.323,1.323,0,0,1,87.9,159.214Z" transform="translate(-74.646 -145.621)" fill="#fff"/>
        <path id="Path_17" data-name="Path 17" d="M132.2,155.948H127.67v-2.773h3.294a1.34,1.34,0,1,0,0-2.677H127.67v-2.773H132.2a1.34,1.34,0,1,0,0-2.677h-5.866A1.34,1.34,0,0,0,125,146.4v10.9a1.34,1.34,0,0,0,1.34,1.34H132.2a1.34,1.34,0,1,0,0-2.677Z" transform="translate(-107.738 -145.033)" fill="#fff"/>
        <path id="Path_18" data-name="Path 18" d="M156.807,158.875a7.329,7.329,0,0,1-.833-.031,1.34,1.34,0,1,1,.178-2.674,3.224,3.224,0,0,0,2.2-.343c.686-.655.638-3.048.576-6.075-.021-1-.045-2.115-.048-3.339a1.34,1.34,0,0,1,1.337-1.344h0a1.34,1.34,0,0,1,1.34,1.334c0,1.207.027,2.3.048,3.294.082,4.114.134,6.6-1.406,8.067A4.748,4.748,0,0,1,156.807,158.875Z" transform="translate(-127.248 -145.049)" fill="#fff"/>
        <path id="Path_19" data-name="Path 19" d="M184.02,158.179a1.34,1.34,0,0,1-1.34-1.34V146.43a1.34,1.34,0,1,1,2.681,0v10.425A1.34,1.34,0,0,1,184.02,158.179Z" transform="translate(-145.644 -145.063)" fill="#fff"/>
        <path id="Path_20" data-name="Path 20" d="M207.8,156.3l-3.713-4.724,3.168-4.042a1.34,1.34,0,1,0-2.108-1.652l-3.771,4.82c0-2.3,0-4.217-.041-4.5a1.371,1.371,0,0,0-1.495-1.179,1.323,1.323,0,0,0-1.166,1.478c.041.576.017,6.819,0,10.627a1.337,1.337,0,0,0,1.33,1.347h0a1.337,1.337,0,0,0,1.34-1.33c0-1.371.021-3.044.027-4.686l4.326,5.506A1.34,1.34,0,0,0,207.8,156.3Z" transform="translate(-156.146 -145.01)" fill="#fff"/>
      </g>
      <path id="Path_21" data-name="Path 21" d="M136.937,72.934a.535.535,0,0,1-.535-.535V70.765a.535.535,0,0,1,1.07,0V72.4A.535.535,0,0,1,136.937,72.934Zm2.322.663,1.166-1.144a.535.535,0,0,0-.75-.762l-1.172,1.14a.535.535,0,0,0,0,.756.538.538,0,0,0,.756.01Zm-3.738,0a.535.535,0,0,0,0-.756l-1.182-1.15a.535.535,0,1,0-.743.769l1.176,1.134a.522.522,0,0,0,.372.151.538.538,0,0,0,.378-.163Zm2.563,10.571a.125.125,0,0,0-.179-.042l-.452.275-.75.131a.125.125,0,0,0-.09.064l-.352.615-1.012-.106a.125.125,0,0,0-.122.061l-.4.641-.862-.288a.131.131,0,0,0-.157.064l-.346.66-.939-.2a.125.125,0,0,0-.106.029,3.409,3.409,0,0,0,.224.266l.865.183h.026a.125.125,0,0,0,.115-.07l.343-.641.852.282a.131.131,0,0,0,.154-.051l.41-.66,1.015.106a.131.131,0,0,0,.125-.067l.368-.641.714-.122a.08.08,0,0,0,.045-.019l.474-.295a.125.125,0,0,0,.035-.2Zm4.718-.048c-.029.032-.051.064-.08.093l-.487.458-2.114,2c-.077.074-.16.141-.24.208s-.086.077-.135.112l-.211.154-.192.135c-.07.045-.144.086-.218.128s-.135.08-.205.115-.154.074-.231.109l-.205.093-.243.09c-.067.022-.135.048-.2.067s-.173.051-.263.07l-.186.045c-.1.019-.192.038-.285.051l-.17.026q-.154.019-.32.029H136.2a1.417,1.417,0,0,1-.349-.029h-.032a5.208,5.208,0,0,1-1.678-.5l-.058-.026c-.122-.061-.237-.128-.352-.2l-.07-.042a3.01,3.01,0,0,1-.32-.227h-.019a5.352,5.352,0,0,1-.689-.609,5.263,5.263,0,0,1-1.281-2.322,5.414,5.414,0,0,1-.154-1.009v-.484h0a5.4,5.4,0,0,1,.128-1.015h0l.029-.112.029-.119c.032-.109.064-.218.1-.32l.077-.362a.492.492,0,0,1,.022-.093,9.1,9.1,0,0,1,.32-1.073c.231-.724.471-1.4.625-2.066a5.1,5.1,0,0,0,.151-1.711v-.019h0V75.74a1.361,1.361,0,0,1,.1-.484,1.445,1.445,0,0,1,.349-.513h0a1.137,1.137,0,0,1,.17-.131l.035-.026a1.67,1.67,0,0,1,.2-.1l.038-.016a1.755,1.755,0,0,1,.231-.07h.029a1.652,1.652,0,0,1,.256-.026h.051a1.441,1.441,0,0,1,1.393,1.477v.221l-.045,1.573-.029.75.9-.846,4.42-4.251a.539.539,0,0,1,.051-.038,1.39,1.39,0,0,1,.173-.135c.032-.019.067-.032.1-.051a1.524,1.524,0,0,1,.144-.07,1.15,1.15,0,0,1,.112-.029,1.32,1.32,0,0,1,.151-.042h.269a1.251,1.251,0,0,1,.154.016.832.832,0,0,1,.125,0,1.017,1.017,0,0,1,.16.048.275.275,0,0,1,.106.035,1.369,1.369,0,0,1,.2.109l.045.026a1.417,1.417,0,0,1,.227.192,1.441,1.441,0,0,1-.054,2.024L140.182,77.8a1.336,1.336,0,0,1,.641.32,1.118,1.118,0,0,1,.093.122,1.39,1.39,0,0,1,.042,1.467,1.554,1.554,0,0,1,.445.135l.045.026a1.375,1.375,0,0,1,.343.253h0a1.24,1.24,0,0,1,.32,1.079,1.675,1.675,0,0,1-.2.577,1.4,1.4,0,0,1,.862.381A1.429,1.429,0,0,1,142.8,84.1Zm-7.794-2.069s1.323,1.32,2.441.545c.785-.545.455-2.05.455-2.05Zm-3.45-.279a5.054,5.054,0,0,0-.109,1.028c.615.192,1.246-.436,1.246-.436Zm2.089,5.205c4.93-1.3,5.269-3.751,5.269-3.751-1.6,1.336-5.353,1.922-6.791,2.1a5.018,5.018,0,0,0,.7.942,5.352,5.352,0,0,0,.82.682Z" transform="translate(-84.052 -43.102)" fill="#8854d0"/>
    </g>
  </g>
</svg>
