<svg xmlns="http://www.w3.org/2000/svg" width="200" height="80" viewBox="0 0 200 80"><g><g><g><path fill="none" stroke="#fff" stroke-miterlimit="50" stroke-width="5" d="M20.5 20.5h160"/></g><g><path fill="none" stroke="#fff" stroke-miterlimit="50" stroke-width="5" d="M180.5 20.5l-40 40"/></g><g><path fill="none" stroke="#fff" stroke-miterlimit="50" stroke-width="5" d="M60.5 60.5h80"/></g></g><g><g><path fill="#45aaf2" d="M0 20C0 8.954 8.954 0 20 0s20 8.954 20 20-8.954 20-20 20S0 31.046 0 20z"/></g><g><path fill="#fff" d="M10 20c0-5.523 4.477-10 10-10s10 4.477 10 10-4.477 10-10 10-10-4.477-10-10z"/></g></g><g><g><path fill="#8854d0" d="M40 60c0-11.046 8.954-20 20-20s20 8.954 20 20-8.954 20-20 20-20-8.954-20-20z"/></g><g><path fill="#fff" d="M50 60c0-5.523 4.477-10 10-10s10 4.477 10 10-4.477 10-10 10-10-4.477-10-10z"/></g></g><g><g><path fill="#1e272e" d="M80 20c0-11.046 8.954-20 20-20s20 8.954 20 20-8.954 20-20 20-20-8.954-20-20z"/></g><g><path fill="#fff" d="M90 20c0-5.523 4.477-10 10-10s10 4.477 10 10-4.477 10-10 10-10-4.477-10-10z"/></g></g><g><g><path fill="#20bf6b" d="M120 60c0-11.046 8.954-20 20-20s20 8.954 20 20-8.954 20-20 20-20-8.954-20-20z"/></g><g><path fill="#fff" d="M130 60c0-5.523 4.477-10 10-10s10 4.477 10 10-4.477 10-10 10-10-4.477-10-10z"/></g></g><g><g><path fill="#eb3b5a" d="M160 20c0-11.046 8.954-20 20-20s20 8.954 20 20-8.954 20-20 20-20-8.954-20-20z"/></g><g><path fill="#fff" d="M170 20c0-5.523 4.477-10 10-10s10 4.477 10 10-4.477 10-10 10-10-4.477-10-10z"/></g></g></g></svg>