<svg xmlns="http://www.w3.org/2000/svg" width="76" height="67" viewBox="0 0 76 67"><g><g opacity=".5"><path fill="#fff" d="M57.09 49.907a2.375 2.375 0 0 1-2.376 2.376h-4.752a2.375 2.375 0 0 1-2.376-2.376V47.53H28.578v2.376a2.375 2.375 0 0 1-2.376 2.376h-4.751a2.375 2.375 0 0 1-2.376-2.376V47.53H.067v14.255a4.752 4.752 0 0 0 4.752 4.752h66.526a4.752 4.752 0 0 0 4.752-4.752V47.531H57.089zM47.585 19.02H28.578V9.516h19.008zm27.12 8.112l-6.72-6.72a4.752 4.752 0 0 0-3.36-1.39h-7.537V7.14A7.128 7.128 0 0 0 49.962.012h-23.76a7.128 7.128 0 0 0-7.127 7.128v11.88h-7.536c-1.261 0-2.468.5-3.36 1.391l-6.72 6.721a4.752 4.752 0 0 0-1.392 3.36V42.78h19.008v-2.376a2.375 2.375 0 0 1 2.376-2.376h4.751a2.375 2.375 0 0 1 2.376 2.376v2.376h19.008v-2.376a2.375 2.375 0 0 1 2.376-2.376h4.752a2.375 2.375 0 0 1 2.375 2.376v2.376h19.008V30.491c0-1.26-.5-2.468-1.392-3.359z"/></g></g></svg>