<svg xmlns="http://www.w3.org/2000/svg" width="147" height="23" viewBox="0 0 147 23">
  <g id="Group_1231" data-name="Group 1231" transform="translate(-622 -419)">
    <g id="Group_1230" data-name="Group 1230">
      <text id="_Wrong_Answer_" data-name=" Wrong Answer!" transform="translate(644 436)" fill="#eb3b5a" font-size="16" font-family="Poppins-Regular, Poppins"><tspan x="0" y="0" xml:space="preserve"> Wrong Answer!</tspan></text>
    </g>
    <g id="astonished" transform="translate(607.755 421)">
      <circle id="Ellipse_82" data-name="Ellipse 82" cx="8.292" cy="8.292" r="8.292" transform="translate(14.582 0.337)" fill="#fddf6d"/>
      <path id="Path_960" data-name="Path 960" d="M33.765,49.246a8.292,8.292,0,0,1-5.547-14.455,8.293,8.293,0,1,0,9.316,13.551A8.257,8.257,0,0,1,33.765,49.246Z" transform="translate(-9.114 -33.549)" fill="#fcc56b"/>
      <path id="Path_961" data-name="Path 961" d="M217.131,259.426h0a3.241,3.241,0,0,1,3.241,3.241v.986H213.89v-.986A3.241,3.241,0,0,1,217.131,259.426Z" transform="translate(-192.519 -250.166)" fill="#7f184c"/>
      <path id="Path_962" data-name="Path 962" d="M241.381,260.588h4.128a.328.328,0,0,0,.224-.094,3.232,3.232,0,0,0-2.406-1.07h0a3.229,3.229,0,0,0-2.271.93A.376.376,0,0,0,241.381,260.588Z" transform="translate(-218.714 -250.165)" fill="#f2f2f2"/>
      <path id="Path_963" data-name="Path 963" d="M246.477,346.012h-2.358l-.682,0c-.455.022-1.022.151-1.022,1.132.6,0,.466,0,.925-.012a1,1,0,0,1,.779.794v1.786A1.883,1.883,0,0,0,246,351.6h0a1.883,1.883,0,0,0,1.883-1.883v-2.3A1.408,1.408,0,0,0,246.477,346.012Z" transform="translate(-220.025 -333.662)" fill="#fc4c59"/>
      <path id="Path_964" data-name="Path 964" d="M324.446,363.85a.337.337,0,0,1-.337-.337v-3.205c0-.04-.1-.136-.166-.174a.337.337,0,0,1,.327-.59.972.972,0,0,1,.514.765v3.205A.337.337,0,0,1,324.446,363.85Z" transform="translate(-298.476 -346.668)" fill="#bc3b4a"/>
      <path id="Path_965" data-name="Path 965" d="M22.874,0a8.629,8.629,0,0,0,0,17.258,8.734,8.734,0,0,0,1.188-.082A2.22,2.22,0,0,0,28.2,16.054v-2.3a1.761,1.761,0,0,0-.014-.215.336.336,0,0,0,.005-.058V12.5a3.578,3.578,0,1,0-7.156,0v.986a.337.337,0,0,0,.337.337h1.018c.418,0,.591,0,.937-.012h0a.352.352,0,0,1,.183.113.785.785,0,0,1,.246.453v1.677a2.222,2.222,0,0,0,.052.475,8.067,8.067,0,0,1-.934.055,7.951,7.951,0,1,1,6.795-3.816.337.337,0,0,0,.576.351A8.631,8.631,0,0,0,22.874,0ZM21.708,12.5a2.9,2.9,0,0,1,5.8-.128,1.737,1.737,0,0,0-1.059-.36h-2.36l-.682,0H23.4a1.235,1.235,0,0,0-1.321,1.131h-.366V12.5Zm1.619.636H23.3c-.215.008-.361.01-.547.011.081-.391.326-.44.665-.457l.673,0h2.358a1.072,1.072,0,0,1,1.071,1.071v2.3a1.546,1.546,0,0,1-3.092,0V14.377a1.411,1.411,0,0,0-.452-.939A.952.952,0,0,0,23.328,13.136Z" transform="translate(0)"/>
      <path id="Path_966" data-name="Path 966" d="M186.837,140.289a.337.337,0,0,0-.477,0l-.641.641-.641-.641a.337.337,0,0,0-.477.477l.641.641-.641.641a.337.337,0,0,0,.477.477l.641-.641.641.641a.337.337,0,0,0,.477-.477l-.641-.641.641-.641A.337.337,0,0,0,186.837,140.289Z" transform="translate(-164.18 -135.186)"/>
      <path id="Path_967" data-name="Path 967" d="M365.768,142.048l-.641-.641.641-.641a.337.337,0,0,0-.477-.477l-.641.641-.641-.641a.337.337,0,0,0-.477.477l.641.641-.641.641a.337.337,0,0,0,.477.477l.641-.641.641.641a.337.337,0,0,0,.477-.477Z" transform="translate(-336.723 -135.185)"/>
      <circle id="Ellipse_83" data-name="Ellipse 83" cx="0.337" cy="0.337" r="0.337" transform="translate(28.907 13.572)"/>
    </g>
  </g>
</svg>
